<svg width="40" height="40" viewBox="0 0 40 40" fill="none" xmlns="http://www.w3.org/2000/svg">
<path d="M26.0607 11.0607C26.6464 10.4749 26.6464 9.52513 26.0607 8.93934C25.4749 8.35355 24.5251 8.35355 23.9393 8.93934L26.0607 11.0607ZM15 20L13.9393 18.9393L12.8787 20L13.9393 21.0607L15 20ZM17 30C17 34.4183 20.5817 38 25 38C29.4183 38 33 34.4183 33 30C33 25.5817 29.4183 22 25 22C20.5817 22 17 25.5817 17 30ZM23.9393 8.93934L13.9393 18.9393L16.0607 21.0607L26.0607 11.0607L23.9393 8.93934ZM13.9393 21.0607L23.9393 31.0607L26.0607 28.9393L16.0607 18.9393L13.9393 21.0607Z" fill="#33363F"/>
</svg>
