<svg width="21" height="30" viewBox="0 0 21 30" fill="none" xmlns="http://www.w3.org/2000/svg">
<path d="M14.0607 3.06066C14.6464 2.47487 14.6464 1.52513 14.0607 0.93934C13.4749 0.353553 12.5251 0.353553 11.9393 0.93934L14.0607 3.06066ZM3 12L1.93934 10.9393L0.87868 12L1.93934 13.0607L3 12ZM5 22C5 26.4183 8.58172 30 13 30C17.4183 30 21 26.4183 21 22C21 17.5817 17.4183 14 13 14C8.58172 14 5 17.5817 5 22ZM11.9393 0.93934L1.93934 10.9393L4.06066 13.0607L14.0607 3.06066L11.9393 0.93934ZM1.93934 13.0607L11.9393 23.0607L14.0607 20.9393L4.06066 10.9393L1.93934 13.0607Z" fill="#33363F"/>
</svg>
